<svg xmlns="http://www.w3.org/2000/svg" xmlns:svgjs="http://svgjs.com/svgjs" xmlns:xlink="http://www.w3.org/1999/xlink" width="288" height="288"><svg xmlns="http://www.w3.org/2000/svg" width="288" height="288" enable-background="new 0 0 1000 1000" viewBox="0 0 1000 1000"><path fill="#c445f4" d="M369.5,91.2C184,175.2,10,375.2,10,633.4c0,159.5,101.5,275.5,226.1,275.5c130.5,0,197.2-98.6,197.2-188.5c0-104.4-72.5-185.5-179.8-185.5c-31.8,0-63.8,8.8-81.2,23.2c0-127.6,101.5-278.4,258-356.6L369.5,91.2z M926.2,91.2c-185.5,84.1-362.4,284.1-362.4,542.2c0,159.5,104.4,275.5,229,275.5c130.5,0,197.2-98.6,197.2-188.5c0-104.4-72.5-185.5-182.6-185.5c-31.9,0-60.9,8.8-78.3,23.2c0-127.6,101.5-278.4,258-356.6L926.2,91.2z" class="color000 svgShape"/></svg></svg>